# xmcd CD database file
#
# Track frame offsets:
#	150
#	19286
#	39456
#	58650
#	78139
#	94383
#	123215
#	147267
#	167485
#	190023
#	211153
#	231731
#	252729
#	274167
#	294977
#	321374
#
# Disc length: 4611 seconds
#
# Revision: 0
# Processed by: cddbd v1.5.1PL0 Copyright (c) Steve Scherf et al.
# Submitted via: CDex 1.51
#
DISCID=eb120110
DTITLE=Santana - Shaman
DYEAR=2002
DGENRE=Rhythmic Soul
TTITLE0=Adouma
TTITLE1=Noting at all
TTITLE2=The game of love
TTITLE3=You are my mind
TTITLE4=Amorè (sexo)
TTITLE5=Foo foo
TTITLE6=Victory is won
TTITLE7=America
TTITLE8=Sidewais
TTITLE9=Why don't you and i
TTITLE10=feels like fire
TTITLE11=Let me love you tonight
TTITLE12=Aye aye aye
TTITLE13=Hoy es adios
TTITLE14=One of these days
TTITLE15=Novus
EXTD=YEAR: 2002
EXTT0=
EXTT1=
EXTT2=
EXTT3=
EXTT4=
EXTT5=
EXTT6=
EXTT7=
EXTT8=
EXTT9=
EXTT10=
EXTT11=
EXTT12=
EXTT13=
EXTT14=
EXTT15=
PLAYORDER=
